<svg fill="none" height="100%" width="100%" viewBox="0 0 800 800" xmlns:xlink="http://www.w3.org/1999/xlink" xmlns="http://www.w3.org/2000/svg"><g transform="matrix(7.8,0,0,7.8,148.45,148.45)" visibility="visible" id="i0"><animate repeatCount="indefinite" begin="0s" calcMode="discrete" dur="15s" values="visible; hidden; hidden" keyTimes="0; 0.941; 1" attributeName="visibility" /><g id="i1" transform="matrix(1,0,0,1,32.25,32.25)"><path fill="#4f5d73" d="M32,0C32,17.673,17.673,32,0,32C-17.673,32,-32,17.673,-32,0C-32,-17.673,-17.673,-32,0,-32C17.673,-32,32,-17.673,32,0Z" /></g></g><g visibility="hidden" id="i2"><animate repeatCount="indefinite" begin="0s" calcMode="discrete" dur="15s" values="hidden; visible; visible" keyTimes="0; 0.941; 1" attributeName="visibility" /><g transform="translate(400,400)"><g transform="scale(7.8,7.8)"><animateTransform repeatCount="indefinite" type="scale" attributeName="transform" dur="15s" begin="0s" calcMode="spline" values="7.8 7.8; 7.8 7.8; 9.43 9.43; 0 0; 0 0" keyTimes="0; 0.941333; 0.968; 0.997333; 1" keySplines="0 0 1 1; 0.333 0 0 0.94; 1 0.001 0.667 1; 0 0 1 1" fill="freeze" /><g transform="translate(-32.25,-32.25)"><g id="i1" transform="matrix(1,0,0,1,32.25,32.25)"><path fill="#4f5d73" d="M32,0C32,17.673,17.673,32,0,32C-17.673,32,-32,17.673,-32,0C-32,-17.673,-17.673,-32,0,-32C17.673,-32,32,-17.673,32,0Z" /></g></g></g></g></g><g transform="matrix(7.8,0,0,7.8,244.291,210.85)" visibility="hidden" id="i3"><animate repeatCount="indefinite" begin="0s" calcMode="discrete" dur="15s" values="hidden; visible; hidden; hidden" keyTimes="0; 0.013; 0.088; 1" attributeName="visibility" /><g id="i1" transform="matrix(1,0,0,1,19.963,24.25)"><path fill="#ffffff" d="M11.905,13.543C8.084,11.883,6.687,9.301,6.261,7.074C9.013,4.86,11.206,1.318,12.41,-2.498C13.648,-4.078,14.371,-5.724,14.371,-7.119C14.371,-8.074,14.023,-8.764,13.416,-9.277C13.213,-17.382,7.474,-23.89,0.378,-23.99C0.322,-23.991,0.267,-24,0.213,-24C0.19,-24,0.17,-23.996,0.147,-23.996C-6.905,-23.957,-12.635,-17.586,-12.977,-9.588C-13.862,-9.059,-14.371,-8.283,-14.371,-7.119C-14.371,-5.478,-13.379,-3.489,-11.708,-1.671C-10.52,1.656,-8.591,4.709,-6.207,6.767C-6.562,9.059,-7.907,11.806,-11.906,13.543C-14.063,14.481,-18.011,15.324,-19.713,16.192C-15.35,20.961,-7.089,23.962,-0.124,23.997C-0.124,23.997,-0.026,23.999,-0.026,23.999C-0.016,23.999,-0.009,24,0,24C7.013,24,15.325,20.99,19.713,16.192C18.009,15.324,14.063,14.481,11.905,13.543Z" /></g></g><g visibility="hidden" id="i3"><animate repeatCount="indefinite" begin="0s" calcMode="discrete" dur="15s" values="hidden; visible; visible" keyTimes="0; 0.088; 1" attributeName="visibility" /><g transform="translate(400.002,400)"><g transform="scale(7.8,7.8)"><animateTransform repeatCount="indefinite" type="scale" attributeName="transform" dur="15s" begin="0s" calcMode="spline" values="7.8 7.8; 7.8 7.8; 9.43 9.43; 7.8 7.8; 7.8 7.8; 9.43 9.43; 7.8 7.8; 7.8 7.8; 9.43 9.43; 7.8 7.8; 7.8 7.8; 9.43 9.43; 7.8 7.8; 7.8 7.8; 9.43 9.43; 7.8 7.8; 7.8 7.8; 9.43 9.43; 7.8 7.8; 7.8 7.8; 9.43 9.43; 0 0; 0 0" keyTimes="0; 0.2; 0.226667; 0.253333; 0.333333; 0.36; 0.386666; 0.466666; 0.493334; 0.52; 0.6; 0.626667; 0.653333; 0.733333; 0.76; 0.786667; 0.866667; 0.893333; 0.92; 0.941333; 0.968; 0.994667; 1" keySplines="0 0 1 1; 0.333 0 0 0.993; 1 0.002 0.667 1; 0 0 1 1; 0.333 0 0 0.993; 1 0.002 0.667 1; 0 0 1 1; 0.333 0 0 0.993; 1 0.002 0.667 1; 0 0 1 1; 0.333 0 0 0.993; 1 0.002 0.667 1; 0 0 1 1; 0.333 0 0 0.993; 1 0.002 0.667 1; 0 0 1 1; 0.333 0 0 0.993; 1 0.002 0.667 1; 0 0 1 1; 0.333 0 0 0.993; 1 0 0.667 1; 0 0 1 1" fill="freeze" /><g transform="translate(-19.963,-24.25)"><g id="i1" transform="matrix(1,0,0,1,19.963,24.25)"><path fill="#ffffff" d="M11.905,13.543C8.084,11.883,6.687,9.301,6.261,7.074C9.013,4.86,11.206,1.318,12.41,-2.498C13.648,-4.078,14.371,-5.724,14.371,-7.119C14.371,-8.074,14.023,-8.764,13.416,-9.277C13.213,-17.382,7.474,-23.89,0.378,-23.99C0.322,-23.991,0.267,-24,0.213,-24C0.19,-24,0.17,-23.996,0.147,-23.996C-6.905,-23.957,-12.635,-17.586,-12.977,-9.588C-13.862,-9.059,-14.371,-8.283,-14.371,-7.119C-14.371,-5.478,-13.379,-3.489,-11.708,-1.671C-10.52,1.656,-8.591,4.709,-6.207,6.767C-6.562,9.059,-7.907,11.806,-11.906,13.543C-14.063,14.481,-18.011,15.324,-19.713,16.192C-15.35,20.961,-7.089,23.962,-0.124,23.997C-0.124,23.997,-0.026,23.999,-0.026,23.999C-0.016,23.999,-0.009,24,0,24C7.013,24,15.325,20.99,19.713,16.192C18.009,15.324,14.063,14.481,11.905,13.543Z" /></g></g></g></g></g></svg>